<?xml version="1.0" standalone="no"?>
<svg xmlns="http://www.w3.org/2000/svg" viewBox="0 0 94.629 109.267" width="94.629" height="109.267"><polygon fill="#ac3618" points="94.629,27.31675 94.629,81.95025 47.3145,109.267 0,81.95025 0,27.31675 47.3145,0"></polygon><g fill="white" color="white" transform="translate(25.314500000000002 22.5) scale(0.9166667)"><svg width="48.0" height="40.0" x="0.0" y="0.0" viewBox="0 0 48 40"><path fill="currentColor" fill-rule="evenodd" d="M41.576 0L12.872 28.703v-2.95L38.625 0h-4.1l-10.9 10.898L12.725 0h-4.1l12.949 12.95-1.476 1.474L5.675 0h-4.1l16.474 16.475-1.475 1.475L0 1.376V40h2.9V8.378l2.087 2.086V40h2.9V13.364l2.086 2.087V40h2.9v-.146l10.752-10.752L34.525 40h2.951V15.253l2.086-2.087V40h2.9V10.266l2.087-2.086V40h2.898V5.434h-.153l.153-.154V1.178L12.872 35.754v-2.95L45.675 0h-4.1zm-8.849 20l1.848-1.848v3.697L32.727 20zm-19.855-1.65L14.522 20l-1.65 1.65V18.35zm16.329 5.176l1.476-1.474 3.898 3.899v2.952l-5.374-5.377zm-3.526 3.526l1.475-1.476 7.425 7.426v2.95l-8.9-8.9z"></path></svg></g><path fill="white" fill-rule="nonzero" d="M0 0.53L0 0L8.74 0L8.74 0.53L7.11 0.53L7.11 9.21L12.68 9.21L12.68 0.53L11.03 0.53L11.03 0L19.80 0L19.80 0.53L18.14 0.53L18.14 19.07L19.80 19.07L19.80 19.60L11.03 19.60L11.03 19.07L12.68 19.07L12.68 9.94L7.11 9.94L7.11 19.07L8.74 19.07L8.74 19.60L0 19.60L0 19.07L1.65 19.07L1.65 0.53L0 0.53ZM32.37 14.42L35.73 0L43.20 0L43.20 0.53L41.66 0.53L41.66 19.07L43.20 19.07L43.20 19.60L34.66 19.60L34.66 19.07L36.20 19.07L36.20 1.57L36.09 1.57L31.89 19.60L28.39 19.60L23.46 1.48L23.35 1.48L23.35 19.07L24.89 19.07L24.89 19.60L21.08 19.60L21.08 19.07L22.62 19.07L22.62 0.53L21.08 0.53L21.08 0L28.64 0L32.37 14.42Z" transform="translate(25.713, 67.167)"></path></svg>